<?xml version="1.0" encoding="UTF-8"?>
<svg width="960px" height="892px" viewBox="0 0 960 892" version="1.1" xmlns="http://www.w3.org/2000/svg" xmlns:xlink="http://www.w3.org/1999/xlink">
    <!-- Generator: Sketch 46.2 (44496) - http://www.bohemiancoding.com/sketch -->
    <title>Star</title>
    <desc>Created with Sketch.</desc>
    <defs></defs>
    <g id="3-layout2" stroke="none" stroke-width="1" fill="none" fill-rule="evenodd" opacity="0.830106431">
        <g id="a01-landing-page" transform="translate(0.000000, -58.000000)" fill="#FEFEFE">
            <polygon id="Star" points="480 903.221469 442.137317 950 412.484303 900.073488 367.009067 942.966314 346.033368 890.679192 293.662752 929.009866 281.695167 875.186734 223.255087 908.350759 220.484352 853.84044 156.896443 881.314799 163.366254 826.976953 95.6333342 848.32836 111.241659 795.019926 40.4319177 809.911656 64.932603 758.473342 -7.83724761 766.670543 25.1694082 717.91356 -48.4129281 719.286958 -7.42083657 673.980234 -80.655221 668.50817 -32.3241635 627.366218 -104.055646 615.134989 -49.1478324 578.806644 -118.245165 560.009143 -57.6265238 529.067323 -123 504 -57.6265238 478.932677 -118.245165 447.990857 -49.1478324 429.193356 -104.055646 392.865011 -32.3241635 380.633782 -80.655221 339.49183 -7.42083657 334.019766 -48.4129281 288.713042 25.1694082 290.08644 -7.83724761 241.329457 64.932603 249.526658 40.4319177 198.088344 111.241659 212.980074 95.6333342 159.67164 163.366254 181.023047 156.896443 126.685201 220.484352 154.15956 223.255087 99.6492407 281.695167 132.813266 293.662752 78.9901338 346.033368 117.320808 367.009067 65.0336864 412.484303 107.926512 442.137317 58 480 104.778531 517.862683 58 547.515697 107.926512 592.990933 65.0336864 613.966632 117.320808 666.337248 78.9901338 678.304833 132.813266 736.744913 99.6492407 739.515648 154.15956 803.103557 126.685201 796.633746 181.023047 864.366666 159.67164 848.758341 212.980074 919.568082 198.088344 895.067397 249.526658 967.837248 241.329457 934.830592 290.08644 1008.41293 288.713042 967.420837 334.019766 1040.65522 339.49183 992.324164 380.633782 1064.05565 392.865011 1009.14783 429.193356 1078.24516 447.990857 1017.62652 478.932677 1083 504 1017.62652 529.067323 1078.24516 560.009143 1009.14783 578.806644 1064.05565 615.134989 992.324164 627.366218 1040.65522 668.50817 967.420837 673.980234 1008.41293 719.286958 934.830592 717.91356 967.837248 766.670543 895.067397 758.473342 919.568082 809.911656 848.758341 795.019926 864.366666 848.32836 796.633746 826.976953 803.103557 881.314799 739.515648 853.84044 736.744913 908.350759 678.304833 875.186734 666.337248 929.009866 613.966632 890.679192 592.990933 942.966314 547.515697 900.073488 517.862683 950"></polygon>
        </g>
    </g>
</svg>