<?xml version="1.0" standalone="no"?>
<!DOCTYPE svg PUBLIC "-//W3C//DTD SVG 20010904//EN"
 "http://www.w3.org/TR/2001/REC-SVG-20010904/DTD/svg10.dtd">
<svg version="1.0" xmlns="http://www.w3.org/2000/svg"
 width="700.000000pt" height="700.000000pt" viewBox="0 0 700.000000 700.000000"
 preserveAspectRatio="xMidYMid meet">
<metadata>
Created by potrace 1.11, written by Peter Selinger 2001-2013
</metadata>
<g transform="translate(0.000000,700.000000) scale(0.100000,-0.100000)"
fill="#000000" stroke="none">
<path d="M2630 6124 c-296 -64 -518 -249 -619 -519 -45 -120 -50 -175 -50
-606 1 -421 4 -468 49 -599 51 -151 186 -317 330 -406 56 -34 68 -54 34 -54
-20 0 -139 -57 -203 -98 -250 -158 -398 -472 -359 -765 11 -84 18 -111 123
-432 91 -279 91 -280 78 -325 -48 -155 -66 -399 -41 -560 60 -388 265 -709
600 -938 104 -71 305 -158 444 -191 27 -6 95 -18 150 -24 546 -69 1080 193
1364 671 76 128 138 310 168 487 24 146 8 382 -38 540 -11 38 -20 73 -20 77 0
8 87 48 105 48 7 0 25 -35 40 -77 15 -43 66 -188 115 -323 48 -135 123 -342
165 -460 42 -118 84 -230 92 -247 27 -59 102 -90 168 -70 17 4 35 10 40 11 6
2 17 6 25 9 8 3 24 7 35 10 59 15 316 101 350 117 132 63 82 260 -66 260 -27
0 -117 -26 -310 -90 l-27 -8 -102 286 c-56 158 -106 296 -111 307 -5 11 -31
85 -59 165 -28 80 -59 168 -70 195 -10 28 -28 77 -40 110 -28 79 -60 118 -104
132 -51 16 -80 9 -234 -56 l-137 -57 -57 81 c-52 72 -136 165 -215 237 -42 38
-180 135 -217 153 -17 9 -38 21 -47 28 -8 7 -50 118 -93 247 -80 244 -127 344
-199 426 -21 24 -35 44 -30 45 4 0 82 2 173 3 126 3 186 8 253 25 307 74 543
316 607 623 17 82 19 135 19 488 0 218 -4 414 -9 436 -5 21 -11 53 -13 69 -20
124 -109 284 -219 392 -107 106 -205 164 -353 209 l-90 28 -665 2 c-535 1
-678 -1 -730 -12z m1790 -1209 c0 -243 -3 -323 -15 -368 -48 -183 -190 -327
-380 -383 -55 -16 -115 -18 -690 -17 -692 0 -679 -1 -803 62 -68 34 -164 122
-205 188 -25 40 -58 125 -71 186 -5 21 -8 338 -6 612 l0 31 1085 0 1085 0 0
-311z m-1240 -1100 c138 -36 266 -132 334 -248 22 -38 106 -266 106 -288 0 -8
-38 -5 -94 7 -55 13 -298 12 -386 -1 -168 -25 -386 -100 -505 -176 -25 -16
-48 -29 -51 -29 -3 0 -38 -25 -77 -56 -89 -69 -205 -181 -254 -245 -20 -27
-40 -46 -44 -41 -3 4 -30 79 -58 167 -77 240 -78 337 -5 490 62 132 168 224
316 275 98 34 415 133 473 148 60 15 183 14 245 -3z m346 -815 c92 -19 154
-36 212 -59 321 -128 567 -403 652 -731 71 -272 22 -588 -128 -823 -50 -78
-86 -121 -163 -197 -97 -94 -142 -127 -260 -189 -311 -163 -679 -166 -994 -9
-206 103 -374 269 -482 474 -38 71 -89 220 -98 284 -3 25 -8 53 -11 63 -10 33
-6 230 6 302 24 153 106 345 197 465 170 224 458 395 718 425 33 3 61 8 63 9
7 8 236 -3 288 -14z"/>
<path d="M2955 5043 c-78 -16 -131 -81 -122 -149 10 -72 70 -126 140 -126 61
0 102 26 129 81 19 39 20 49 9 88 -6 25 -17 50 -24 57 -36 36 -93 57 -132 49z"/>
<path d="M3665 5040 c-50 -11 -74 -29 -95 -70 -26 -50 -25 -83 1 -130 27 -48
69 -72 126 -72 102 0 165 101 124 200 -22 52 -95 87 -156 72z"/>
<path d="M2971 4477 c48 -43 160 -99 232 -116 61 -15 175 -15 247 -1 64 12
202 77 248 117 17 16 32 31 32 34 0 2 -180 4 -401 4 l-401 0 43 -38z"/>
<path d="M3306 2640 c-15 -5 -37 -17 -48 -27 -45 -41 -48 -59 -48 -313 0 -222
-1 -240 -17 -241 -10 0 -140 -1 -290 -2 -257 -2 -273 -3 -299 -23 -46 -34 -67
-69 -67 -112 0 -51 29 -101 73 -126 33 -19 52 -21 317 -21 l283 0 0 -258 c0
-244 1 -261 21 -296 28 -51 76 -75 133 -69 58 7 91 29 114 76 17 33 18 64 18
292 l-1 255 300 0 c293 1 302 1 337 23 44 28 71 81 65 130 -5 50 -20 76 -59
104 -32 23 -38 23 -308 25 -151 1 -289 2 -305 2 l-30 1 1 238 c1 220 -1 240
-19 274 -13 25 -36 45 -62 58 -44 21 -64 23 -109 10z"/>
</g>
</svg>
