<?xml version="1.0" encoding="UTF-8"?>
<svg width="33px" height="33px" viewBox="0 0 33 33" version="1.1" xmlns="http://www.w3.org/2000/svg" xmlns:xlink="http://www.w3.org/1999/xlink">
    <!-- Generator: Sketch 48.2 (47327) - http://www.bohemiancoding.com/sketch -->
    <title>icon/attachment</title>
    <desc>Created with Sketch.</desc>
    <defs></defs>
    <g id="Symbols" stroke="none" stroke-width="1" fill="none" fill-rule="evenodd">
        <g id="icon/attachment" fill="#4D4E54" stroke="#FFFFFF" stroke-width="0.5">
            <path d="M11.3875832,27.62 C9.83260004,27.62 8.5368002,27.0711907 7.50014478,25.9735555 C6.40250963,24.9064102 5.83845559,23.6410998 5.80796572,22.1775863 C5.77747586,20.7140727 6.41775342,19.2658258 7.72881763,17.8328022 L19.0709908,6.490629 C20.2905854,5.27103439 21.6168747,4.85942739 23.0498983,5.25579563 C23.7206754,5.43873483 24.3228412,5.79698537 24.8564138,6.33055801 C25.3899865,6.86413065 25.748237,7.46629646 25.9311762,8.1370735 C26.3275444,9.60058703 25.9159374,10.942121 24.6963428,12.1617156 L13.8572499,23.0008085 C13.2474526,23.6106058 12.5766856,23.9536117 11.8449289,24.0298363 C11.1131721,24.106061 10.5033839,23.9002575 10.0155461,23.4124196 C9.55819811,23.0465412 9.35239461,22.4824872 9.39812941,21.7202406 C9.44386421,20.9579939 9.80211475,20.2567376 10.4728918,19.6164504 L18.0648303,11.9787773 C18.4307087,11.5824091 18.8118263,11.5824091 19.2081945,11.9787773 C19.6045628,12.3751456 19.6045628,12.7562632 19.2081945,13.1221415 L11.616256,20.71408 C10.945479,21.3848571 10.7930319,21.9184217 11.1589103,22.31479 C11.3418495,22.4367494 11.524786,22.4824835 11.7077252,22.4519937 C12.0736035,22.3910139 12.4242317,22.1928328 12.7596202,21.8574443 L23.5987132,11.0183514 C24.3609598,10.2561047 24.6201198,9.42526836 24.3762008,8.52581734 C24.1322819,7.62636631 23.5529832,7.05468991 22.6382872,6.81077099 C21.8150608,6.59734193 20.9918468,6.8717466 20.1686205,7.63399324 L8.87218186,18.9304318 C7.86601631,20.0890467 7.37818578,21.1790431 7.40867565,22.2004535 C7.43916551,23.221864 7.83552781,24.1060569 8.59777445,24.8530586 C9.36002108,25.6000603 10.2518363,25.9888002 11.2732467,26.0192901 C12.2946572,26.0497799 13.3694089,25.5771941 14.4975339,24.6015184 L25.8397071,13.3050798 C26.2055854,12.9392014 26.586703,12.9315791 26.9830713,13.2822125 C27.3794395,13.632846 27.3794395,14.0063412 26.9830713,14.4027095 L15.6408981,25.7448827 C14.3908136,26.9949671 12.9730562,27.62 11.3875832,27.62 Z" id="n"></path>
        </g>
    </g>
</svg>