<?xml version="1.0" encoding="UTF-8"?>
<svg width="33px" height="33px" viewBox="0 0 33 33" version="1.1" xmlns="http://www.w3.org/2000/svg" xmlns:xlink="http://www.w3.org/1999/xlink">
    <!-- Generator: Sketch 48.2 (47327) - http://www.bohemiancoding.com/sketch -->
    <title>icon/beverage</title>
    <desc>Created with Sketch.</desc>
    <defs></defs>
    <g id="Symbols" stroke="none" stroke-width="1" fill="none" fill-rule="evenodd">
        <g id="icon/beverage" fill="#000000" fill-rule="nonzero">
            <g id="wine-bottle" transform="translate(10.000000, 3.000000)">
                <path d="M10.4201899,7.16223776 C9.99343607,6.70237762 9.55215198,6.22692308 9.14202822,5.55874126 C8.73685988,4.89818182 8.19974306,2.55468531 8.07081823,1.85 C8.06636675,1.82615385 8.05561601,1.78440559 8.08182093,1.75818182 C8.25517654,1.5648951 8.32883588,1.34846154 8.32883588,1.09321678 C8.32891987,0.49041958 7.79071117,0 7.12928898,0 L4.88700473,0 C4.22549854,0 3.68737384,0.49041958 3.68737384,1.09321678 C3.68737384,1.34818182 3.75288614,1.55475524 3.92598977,1.7479021 C3.94807917,1.77132867 3.94908706,1.82636364 3.94471957,1.85062937 C3.81394695,2.56615385 3.27850994,4.89986014 2.8741815,5.55874126 C2.46414173,6.22699301 2.02285763,6.70244755 1.59610383,7.16230769 C0.758134402,8.06524476 0.0344755245,8.84503497 0.0344755245,10.5581119 L0.0344755245,22.4202098 C0.0344755245,24.0014685 0.3942892,24.8956643 1.23771799,25.4101399 C2.07190787,25.9188811 3.31445771,25.9604196 4.73347079,25.9604196 C4.978218,25.9604196 5.23405191,25.958951 5.50164443,25.9574126 C5.66668502,25.9563636 5.83617708,25.9554545 6.00600511,25.9547552 C6.17994864,25.9554545 6.34944071,25.9563636 6.51464927,25.9574126 C6.7822418,25.9588811 7.0380757,25.9604196 7.28282292,25.9604196 C8.70200398,25.9604196 9.9447218,25.918951 10.7788277,25.4102797 C11.6220885,24.8959441 11.9818182,24.0016084 11.9818182,22.4202797 L11.9818182,10.558042 C11.9819022,8.84503497 11.2582433,8.06517483 10.4201899,7.16223776 Z M11.0580108,22.4202098 C11.0580108,23.7108392 10.8035208,24.4415385 10.2328919,24.7897203 C9.67964898,25.1272028 8.76928007,25.1911888 7.28290691,25.1911888 C7.04025945,25.1911888 6.7864413,25.1897203 6.5212005,25.1881818 C6.35532002,25.1871329 6.18524002,25.1862238 6.00617309,25.1855245 C5.83130565,25.1862238 5.66105768,25.1871329 5.49526118,25.1881818 C5.23002038,25.1896503 4.97628623,25.1911888 4.73363877,25.1911888 C1.92862072,25.1911888 0.958534829,25.056993 0.958534829,22.4202098 L0.958534829,10.558042 C0.958534829,9.10755245 1.53269129,8.48888112 2.32740581,7.63258741 C2.75886306,7.16762238 3.24793753,6.64062937 3.6971167,5.90874126 C4.21995519,5.05664336 4.87734587,2.07797203 4.8975035,1.6820979 C4.8975035,1.6820979 4.90976605,1.54629371 4.88524094,1.50041958 C4.86424341,1.46104895 4.74430552,1.36664336 4.74430552,1.36664336 C4.66107131,1.30482517 4.61143315,1.20258741 4.61143315,1.09321678 C4.61143315,0.920629371 4.74027399,0.769230769 4.88717271,0.769230769 L7.12954095,0.769230769 C7.27627169,0.769230769 7.40511253,0.920629371 7.40511253,1.09321678 C7.40511253,1.20258741 7.35539038,1.30475524 7.27224016,1.36657343 C7.27224016,1.36657343 7.15574586,1.45020979 7.13441237,1.49160839 C7.11307888,1.53300699 7.1180343,1.66657343 7.1180343,1.66657343 C7.11828627,1.67188811 7.11862223,1.67699301 7.11904218,1.68230769 C7.13953577,2.07937063 7.79667447,5.05664336 8.31951297,5.90874126 C8.76869214,6.6406993 9.2578506,7.16762238 9.68930785,7.63258741 C10.4840224,8.48888112 11.0581788,9.10762238 11.0581788,10.558042 L11.0581788,22.4202098 L11.0580108,22.4202098 Z" id="Shape" transform="translate(6.008147, 12.980210) rotate(-45.000000) translate(-6.008147, -12.980210) "></path>
            </g>
        </g>
    </g>
</svg>