<?xml version="1.0" encoding="UTF-8"?>
<svg width="33px" height="33px" viewBox="0 0 33 33" version="1.1" xmlns="http://www.w3.org/2000/svg" xmlns:xlink="http://www.w3.org/1999/xlink">
    <!-- Generator: Sketch 48.2 (47327) - http://www.bohemiancoding.com/sketch -->
    <title>icon/notification-normal</title>
    <desc>Created with Sketch.</desc>
    <defs></defs>
    <g id="Symbols" stroke="none" stroke-width="1" fill="none" fill-rule="evenodd">
        <g id="icon/notification-normal">
            <rect id="bounding" x="0" y="0" width="33" height="33"></rect>
            <path d="M27.6181407,23.524428 C27.2030398,23.1658201 26.842227,22.8116405 26.5357117,22.4613373 C26.177937,22.0524519 25.7860281,21.4937733 25.356134,20.7827946 C24.9222237,20.0651738 24.5713037,19.3215575 24.3037516,18.5523453 C24.0372522,17.7861594 23.814743,16.8466762 23.6344163,15.7319294 C23.4540038,14.6166523 23.364,13.422056 23.3640354,12.1540369 C23.3495344,10.9359472 22.8694784,9.79399577 21.9065777,8.71258427 C20.9462619,7.63407571 19.6847104,6.97747872 18.1013737,6.7384845 L17.4211229,6.63580515 L17.7287864,6.02047816 C17.7742187,5.92961361 17.796,5.83813207 17.796,5.74008496 C17.796,5.53539065 17.7190346,5.35259781 17.5479,5.17076731 C17.3901851,5.0031952 17.2265656,4.93430279 17.0227038,4.94356923 C16.7896451,4.95416281 16.598911,5.03447187 16.4299706,5.19285356 C16.2761865,5.33702615 16.204,5.50846902 16.204,5.74008496 C16.204,5.83813207 16.2257813,5.92961361 16.2712136,6.02047816 L16.578423,6.63489694 L15.899321,6.73837915 C14.3309308,6.97737195 13.0679606,7.63470729 12.0908882,8.71540857 C11.1146617,9.79517425 10.636,10.933809 10.6358398,12.1607391 C10.6033994,13.4421358 10.5140522,14.6280173 10.3675491,15.7186513 C10.2187061,16.8267049 9.99394353,17.7757023 9.69092838,18.5669086 C9.39386785,19.3425666 9.04694295,20.077717 8.65012157,20.7721544 C8.24882075,21.4744309 7.85191305,22.0402355 7.45596551,22.4706132 C7.12770888,22.8274139 6.76944313,23.1774247 6.38122582,23.5207172 C6.42146446,23.7587585 6.5328018,23.96578 6.72155339,24.1545316 C6.96440614,24.3973843 7.23750291,24.512085 7.568,24.512085 L14.068,24.512085 L14.068,25.012085 C14.068,25.867465 14.3792382,26.6881315 14.9295534,27.2384466 C15.5079646,27.8168578 16.1888541,28.1 17,28.1 C17.8111459,28.1 18.4920354,27.8168578 19.0704466,27.2384466 C19.6207618,26.6881315 19.932,25.867465 19.932,25.012085 L19.932,24.512085 L26.432,24.512085 C26.7624971,24.512085 27.0355939,24.3973843 27.2784466,24.1545316 C27.4662167,23.9667615 27.5773756,23.760911 27.6181407,23.524428 Z" id="®" stroke="#37404D"></path>
            <rect id="Rectangle-5" stroke="#4D4E54" x="13.5" y="24.5" width="7" height="1"></rect>
        </g>
    </g>
</svg>