<?xml version="1.0" encoding="UTF-8"?>
<svg width="33px" height="33px" viewBox="0 0 33 33" version="1.1" xmlns="http://www.w3.org/2000/svg" xmlns:xlink="http://www.w3.org/1999/xlink">
    <!-- Generator: Sketch 48.2 (47327) - http://www.bohemiancoding.com/sketch -->
    <title>icon/place</title>
    <desc>Created with Sketch.</desc>
    <defs></defs>
    <g id="Symbols" stroke="none" stroke-width="1" fill="none" fill-rule="evenodd">
        <g id="icon/place" stroke="#37404D">
            <path d="M21.5807256,12.37 C21.5807256,13.7406273 21.0873161,14.9271596 20.1126007,15.9018751 C19.1378852,16.8765905 17.9513529,17.37 16.5807256,17.37 C15.2100983,17.37 14.023566,16.8765905 13.0488506,15.9018751 C12.0741351,14.9271596 11.5807256,13.7406273 11.5807256,12.37 C11.5807256,10.9993727 12.0741351,9.81284038 13.0488506,8.83812493 C14.023566,7.86340948 15.2100983,7.37 16.5807256,7.37 C17.9513529,7.37 19.1378852,7.86340948 20.1126007,8.83812493 C21.0873161,9.81284038 21.5807256,10.9993727 21.5807256,12.37 Z M16.5799631,29.3560115 L24.5288438,15.3073241 C24.8730203,14.5616084 25.0492571,13.5825151 25.0492571,12.37 L25.049275,12.3657629 C25.0691158,10.024551 24.2514328,8.03452723 22.5838156,6.36691003 C20.9151612,4.69825562 18.9234036,3.87 16.5807256,3.87 C14.2380476,3.87 12.2462901,4.69825562 10.5776357,6.36691003 C8.90898125,8.03556444 8.08072563,10.027322 8.08072563,12.37 C8.08072563,13.5825151 8.25696242,14.5616084 8.58195939,15.2699751 L16.5799631,29.3560115 Z" id="y"></path>
        </g>
    </g>
</svg>