<?xml version="1.0" encoding="UTF-8"?>
<svg width="33px" height="33px" viewBox="0 0 33 33" version="1.1" xmlns="http://www.w3.org/2000/svg" xmlns:xlink="http://www.w3.org/1999/xlink">
    <!-- Generator: Sketch 48.2 (47327) - http://www.bohemiancoding.com/sketch -->
    <title>icon/ruler</title>
    <desc>Created with Sketch.</desc>
    <defs></defs>
    <g id="Symbols" stroke="none" stroke-width="1" fill="none" fill-rule="evenodd">
        <g id="icon/ruler" fill="#37404D">
            <path d="M28.5824931,24.1348528 L8.65100929,4.20143112 C7.23383732,5.61149785 5.78436881,7.05450705 4.35040264,8.48136799 C4.5809999,8.72423793 4.84130998,8.99746662 5.14102182,9.31203488 C5.42200168,9.01878233 5.6874792,8.73392689 5.96135382,8.45617669 C6.34697446,8.06474268 6.72742764,7.66684936 7.13694771,7.30189851 C7.22737801,7.22115717 7.43084618,7.26701825 7.58199397,7.25474557 C7.57553466,7.40653929 7.59814224,7.56802196 7.55292709,7.70689707 C7.52063055,7.80701633 7.39790372,7.87871463 7.31457866,7.96139377 C6.72936543,8.54014768 6.14415221,9.11760973 5.53891514,9.71574157 C5.80826825,9.9792813 6.04855447,10.2144001 6.34180701,10.5011933 C6.6150357,10.206003 6.87469984,9.91339636 7.1472826,9.63306244 C7.53031951,9.23969064 7.91206456,8.84308918 8.3209387,8.4774924 C8.4094312,8.39868885 8.61289938,8.44777959 8.76340123,8.43809063 C8.75500413,8.58988434 8.76598496,8.74684551 8.72981284,8.89217992 C8.71043491,8.96839974 8.60837786,9.02394978 8.54313886,9.08789692 C7.93854772,9.6827991 7.33395658,10.2770554 6.72742764,10.8726035 C7.00517785,11.156167 7.24869372,11.4042044 7.52902765,11.6890599 C7.89720815,11.3124823 8.25053225,10.9475314 8.60773193,10.5864562 C8.91131936,10.2796391 9.20521784,9.96054931 9.53399657,9.68344503 C9.6250728,9.60657928 9.82724911,9.66277525 9.97839689,9.6576078 C9.97387538,9.80035849 9.99389923,9.94956848 9.95514339,10.0819843 C9.92866023,10.1711227 9.82014387,10.2363617 9.74521591,10.3093519 C9.13804104,10.8990866 8.53086618,11.4888214 7.93790179,12.0643456 C8.15945602,12.3130289 8.32287649,12.4971192 8.5017993,12.6992955 C8.62065055,12.5881954 8.71689422,12.5029326 8.80797045,12.4125023 C9.68708214,11.5340365 10.564902,10.6542789 11.4446596,9.77710498 C11.6035586,9.61820603 11.7876488,9.49160361 11.9833658,9.70346888 C12.1655183,9.90047775 12.0214757,10.0632523 11.8761413,10.2085867 C11.1275076,10.9585122 10.3795199,11.7090837 9.62830245,12.4564256 C9.40804008,12.6753961 9.17808875,12.8840317 8.98237174,13.0694138 C9.29112662,13.384628 9.55208263,13.6507514 9.88344508,13.9892191 C10.0500952,13.7941481 10.2167453,13.5764694 10.406003,13.3813983 C10.8336092,12.9402277 11.2625071,12.4984111 11.7165964,12.0843695 C11.8050889,12.0036281 12.009203,12.0501351 12.1603508,12.0372165 C12.1545374,12.1883643 12.1861881,12.3550144 12.1319299,12.4861384 C12.0815473,12.6088652 11.9407344,12.6954199 11.8386773,12.796831 C11.3044926,13.3297239 10.7703079,13.8619708 10.3239698,14.3063711 C10.5584427,14.6144801 10.760619,14.8806035 10.9795895,15.1693345 C11.6151853,14.5279253 12.2029823,13.9330232 12.7933629,13.3400588 C12.9445107,13.188911 13.1182661,13.0170934 13.3288395,13.2179779 C13.5594367,13.4369484 13.3766383,13.6158712 13.2158016,13.7799376 C13.1518545,13.8451766 13.0872614,13.9097697 13.0220224,13.9737168 C12.4800865,14.5001503 11.9381507,15.0265838 11.4252817,15.5245964 C11.7101371,15.836581 11.943964,16.0936614 12.205566,16.3811005 C12.531761,16.0452166 12.829535,15.7345239 13.1324765,15.4277068 C13.45415,15.1021577 13.7667805,14.7649819 14.1136453,14.4678538 C14.2053674,14.3890502 14.4081897,14.4400788 14.5599834,14.4316817 C14.5483567,14.5828294 14.5690264,14.7468958 14.5160601,14.8818954 C14.4714909,14.9929954 14.3423048,15.071799 14.2479989,15.1622293 C13.6957281,15.6925384 13.1434574,16.2215557 12.6144401,16.7286113 C12.9716398,17.1045429 13.2571412,17.4049007 13.5607286,17.7246364 C13.6776421,17.6161201 13.7835747,17.523106 13.883048,17.4236327 C14.7350306,16.5735879 15.5850754,15.7216053 16.437704,14.8709145 C16.5946651,14.7145993 16.763253,14.4995044 16.9951422,14.7223505 C17.2502848,14.9665123 17.015166,15.1447892 16.8523915,15.3088556 C16.2904318,15.8753368 15.729118,16.442464 15.1574693,16.9986103 C14.7660353,17.3797094 14.3578071,17.7440143 14.041947,18.0366209 C14.3532856,18.4157823 14.5987392,18.7135563 14.862279,19.0345839 C15.2046222,18.6844894 15.5140231,18.3653997 15.8266535,18.0495396 C16.158016,17.7149475 16.4790435,17.3667908 16.8355973,17.0612656 C16.9389462,16.9721271 17.1508115,17.0089452 17.3129401,16.9882754 C17.2974377,17.1478203 17.3051889,17.3144704 17.2593278,17.4649723 C17.2321987,17.5534648 17.1210987,17.616766 17.0468166,17.6904021 C16.4603115,18.2685101 15.8738065,18.8466181 15.3325165,19.3801568 C15.579908,19.6695338 15.8027541,19.9311357 16.036581,20.2043644 C16.3330632,19.9052985 16.5998326,19.6352994 16.8672479,19.3672382 C17.2464092,18.9874309 17.6139438,18.5947051 18.0157127,18.240735 C18.1171238,18.1509507 18.3283432,18.1864769 18.4891799,18.1645152 C18.4730316,18.324706 18.4749694,18.4894184 18.4336299,18.6425039 C18.4129601,18.7193697 18.3134867,18.7762116 18.2488937,18.8408047 C17.6533456,19.4279557 17.0584434,20.0144608 16.4893784,20.5751286 C16.7567937,20.8664434 16.9983718,21.1286912 17.2806435,21.4361543 C17.4886332,21.2074948 17.6662642,20.9988592 17.8581056,20.8037881 C18.3167164,20.3380721 18.7720975,19.8678345 19.2539619,19.4266638 C19.3424544,19.3452766 19.5472144,19.3898458 19.6977163,19.3762812 C19.6912569,19.5280749 19.718386,19.6921413 19.6686494,19.8284327 C19.6273098,19.9401787 19.4961859,20.0196282 19.4031718,20.1113504 C18.8289394,20.6797694 18.2540611,21.2475425 17.7082497,21.7868946 C17.9097801,22.0187838 18.0764302,22.2099792 18.3102571,22.4786864 C18.4685101,22.2842613 18.5951125,22.0995251 18.7501359,21.941918 C19.5491522,21.1319209 20.3546278,20.3277372 21.1613952,19.5254912 C21.4191216,19.2690567 21.703977,19.2619515 21.7491922,19.5132185 C21.7743835,19.6527396 21.6703886,19.8594374 21.5605804,19.9731212 C20.8500566,20.7049607 20.1208009,21.4187141 19.3999422,22.1402187 C19.1635316,22.3772753 18.9329343,22.6201452 18.7481981,22.8100489 C19.028532,23.1246171 19.2765694,23.4036592 19.5594871,23.7214571 C19.9276676,23.3390661 20.2680731,22.9786368 20.6149379,22.6246668 C20.8894584,22.3443328 21.1555819,22.0517262 21.4578774,21.8049807 C21.5502455,21.7294068 21.75113,21.7862487 21.9016318,21.7823731 C21.8951725,21.9238319 21.9177801,22.0749797 21.8732109,22.202874 C21.8376847,22.3036392 21.7214172,22.3779212 21.6380921,22.4606004 C21.080008,23.0089955 20.5212779,23.5567448 19.9741746,24.0948051 C20.2467574,24.374493 20.4786465,24.6121955 20.7215164,24.8608789 C20.7796502,24.8085585 20.8287409,24.7685108 20.8733101,24.7239416 C21.4281646,24.1690871 21.9810813,23.6122948 22.5372276,23.0593781 C22.6896673,22.9075844 22.8647145,22.7467477 23.0720583,22.9599048 C23.2768183,23.1704782 23.1133978,23.3416498 22.96225,23.4953814 C22.7426336,23.7195193 22.5204334,23.9410735 22.2956496,24.1600441 C21.9061533,24.5385594 21.5147193,24.9144911 21.1478307,25.2691071 C21.4397914,25.5752782 21.6723264,25.81944 21.9494307,26.1101089 C22.4190223,25.6256608 22.8802168,25.1476721 23.344641,24.672913 C23.5183964,24.495928 23.6818169,24.2989192 23.885931,24.1645656 C23.9808828,24.1025562 24.1921021,24.1251638 24.2909295,24.1949243 C24.351647,24.2375557 24.3309772,24.4513588 24.2896377,24.5682723 C24.2534655,24.6696834 24.1384899,24.7439654 24.0545189,24.8259986 C23.4867458,25.3827909 22.9176808,25.9389372 22.3970607,26.4479306 C22.7226098,26.8019006 23.009403,27.115177 23.3226794,27.4568744 C23.9899258,26.7851064 24.6520048,26.118506 25.3147297,25.4525514 C25.628652,25.1373372 25.9290098,24.8059748 26.2674775,24.5198275 C26.3701805,24.4332727 26.5813998,24.4752582 26.7428825,24.458464 C26.7228586,24.6199467 26.7202749,24.7859509 26.6757057,24.9396824 C26.653744,25.0171941 26.5549166,25.0727441 26.4903236,25.1379831 C25.6577189,25.9705878 24.8251142,26.8025466 23.9931555,27.6364431 C23.9053089,27.7242897 23.8226298,27.8173037 23.782582,27.8599351 C23.9757153,28.0827812 24.1359061,28.2675174 24.2780109,28.4315838 C25.7326469,26.9788857 27.1750101,25.539752 28.5824931,24.1348528 L28.5824931,24.1348528 Z M8.69622444,3 C8.97849616,3.30358743 9.25172485,3.6162179 9.54433146,3.90947044 C16.1754561,10.5425329 22.8085185,17.1743034 29.4428728,23.8047822 C29.5320113,23.8939206 29.6405276,23.964327 29.740001,24.0437765 L29.740001,24.1225801 C28.3486662,25.5035799 26.9553937,26.8839338 25.5666427,28.2681634 C25.1513092,28.6822049 24.7482485,29.1098111 24.30514,29.5658381 C23.2393543,28.4916554 22.2129704,27.451061 21.1794813,26.4169259 C15.2866554,20.5221623 9.39253774,14.6286905 3.49712817,8.73586468 C3.40798974,8.64608032 3.29947338,8.57567387 3.20000005,8.49687032 L3.20000005,8.41806678 C3.70188821,7.92586758 4.20829788,7.43754396 4.7050186,6.93953139 C6.01173642,5.62893798 7.31393272,4.31382306 8.61806682,3 L8.69622444,3 Z" id="Fill-1-Copy"></path>
        </g>
    </g>
</svg>