<?xml version="1.0" encoding="UTF-8"?>
<svg width="33px" height="33px" viewBox="0 0 33 33" version="1.1" xmlns="http://www.w3.org/2000/svg" xmlns:xlink="http://www.w3.org/1999/xlink">
    <!-- Generator: Sketch 48.2 (47327) - http://www.bohemiancoding.com/sketch -->
    <title>icon/user-normal</title>
    <desc>Created with Sketch.</desc>
    <defs></defs>
    <g id="Symbols" stroke="none" stroke-width="1" fill="none" fill-rule="evenodd">
        <g id="icon/user-normal" stroke="#37404D">
            <path d="M-1.20000005,37.0478719 L33.8833328,37.0478719 L33.8833328,33.4789003 C33.8833328,32.5321062 31.3587323,31.0222962 26.3860718,29.2672395 L26.3791568,29.2647416 C23.9629555,28.3717976 22.2814196,27.4582072 21.3238399,26.5006275 C20.3288844,25.5056721 19.8338649,24.1620477 19.8338649,22.5003543 C19.8338649,21.7974346 20.1799095,21.0752545 20.8422567,20.3265142 C21.3624026,19.7385232 21.7231379,18.8774132 21.9135402,17.7349989 C21.9827933,17.3194806 22.1510325,16.9830021 22.4268202,16.7466126 C22.6577407,16.5486809 22.8992439,16.410679 23.1522667,16.3383868 C23.1523339,16.3383676 23.251037,16.2185138 23.373947,15.9551351 C23.5231479,15.635419 23.6265802,15.1412422 23.6725173,14.5159573 C23.6725173,13.822019 23.5209642,13.4683951 23.2784907,13.360629 L22.9354194,13.2081529 L22.9861448,12.8361667 L23.4452563,9.47049337 C23.5828186,8.2324331 23.1160044,6.92535331 22.0149884,5.53711576 C20.945851,4.18907293 19.0687212,3.5 16.3416664,3.5 C13.616121,3.5 11.7533816,4.18814576 10.7100246,5.53291696 C9.62903733,6.92618948 9.14740507,8.24186785 9.23838729,9.47336674 C9.3397398,10.4362156 9.4920972,11.5535032 9.69549317,12.824728 L9.73582168,13.0767812 L9.40178015,13.4108228 L9.27183355,13.504483 C9.2953256,13.4927369 9.23239997,13.5766378 9.14996163,13.7415145 C9.06040702,13.9206237 9.01081542,14.1785 9.00954477,14.4803338 C9.05675251,15.1412422 9.16018487,15.635419 9.3093857,15.9551351 C9.43229576,16.2185138 9.53099888,16.3383676 9.53106604,16.3383868 C9.78408885,16.410679 10.0255921,16.5486809 10.2565125,16.7466126 C10.5323002,16.9830021 10.7005394,17.3194806 10.7651837,17.7109836 C11.0054633,18.8162696 11.3836235,19.6789475 11.8925818,20.3035782 C12.5219291,21.075959 12.8494678,21.805477 12.8494678,22.5003543 C12.8494678,24.1592918 12.3694282,25.5005792 11.4029657,26.495467 C10.4682044,27.4577212 8.77168584,28.3722508 6.29726097,29.2672395 C1.32460042,31.0222962 -1.20000005,32.5321062 -1.20000005,33.4789003 L-1.20000005,37.0478719 Z" id="p"></path>
        </g>
    </g>
</svg>